<svg xmlns="http://www.w3.org/2000/svg" xmlns:xlink="http://www.w3.org/1999/xlink" width="132.89" height="38.84" viewBox="0 0 132.89 38.84"><defs><style>.a{fill:#fff;}.b{clip-path:url(#a);}.c{clip-path:url(#b);}</style><clipPath id="a"><path class="a" d="M76,151h30.3v17.76H76Zm0,0" transform="translate(-76 -151)"/></clipPath><clipPath id="b"><path class="a" d="M78.45,148.105l29.468,4.254-2.126,14.734-29.468-4.252Zm0,0" transform="translate(-76.324 -148.105)"/></clipPath></defs><g transform="translate(-59.879 -151)"><path class="a" d="M74.4,174.281H59.879v1.932H82.46v-1.932Zm0,0" transform="translate(0 -11.12)"/><path class="a" d="M90.3,183.367H75.777v1.93H98.359v-1.93Zm0,0" transform="translate(-7.594 -15.46)"/><g class="b" transform="translate(68.3 151)"><g class="c" transform="translate(0.169 -1.512)"><g class="c"><path class="a" d="M105.792,168.9l-1.583-.229a13.285,13.285,0,1,0-26.3-3.8l-1.583-.229a14.884,14.884,0,1,1,29.464,4.252Zm0,0" transform="translate(-76.326 -149.911)"/></g></g></g><path class="a" d="M74.4,191.945H59.879v1.932H82.46v-1.932Zm0,0" transform="translate(0 -19.558)"/><g transform="translate(87.681 171.949)"><g transform="translate(0)"><path class="a" d="M5.869-12.266a8.37,8.37,0,0,1-2.2-.261,7,7,0,0,1-1.787-.784,5.679,5.679,0,0,1-.424-2.057,2.244,2.244,0,0,1,.122-.808.421.421,0,0,1,.392-.31.362.362,0,0,1,.212.049.36.36,0,0,1,.106.212,5,5,0,0,0,1.673,2.408,4.218,4.218,0,0,0,2.636.865,2.966,2.966,0,0,0,1.934-.588,2.128,2.128,0,0,0,.718-1.747,2.182,2.182,0,0,0-.482-1.477,3.055,3.055,0,0,0-1.118-.824q-.63-.269-2.04-.743a9.016,9.016,0,0,1-3.1-1.649,3.229,3.229,0,0,1-1.077-2.53A3.2,3.2,0,0,1,2-24.37a3.778,3.778,0,0,1,1.649-1.281,6.391,6.391,0,0,1,2.563-.473,7.341,7.341,0,0,1,3.8.988,5.688,5.688,0,0,1,.424,2.057,2.106,2.106,0,0,1-.131.8.408.408,0,0,1-.384.31.387.387,0,0,1-.2-.049.511.511,0,0,1-.139-.2,4.969,4.969,0,0,0-1.583-2.391,3.77,3.77,0,0,0-2.4-.849,2.286,2.286,0,0,0-1.812.677,2.423,2.423,0,0,0-.588,1.641A2.239,2.239,0,0,0,3.984-21.3a7.928,7.928,0,0,0,2.359,1.175l.408.147a19.106,19.106,0,0,1,2.236.881,4.376,4.376,0,0,1,1.518,1.2,2.919,2.919,0,0,1,.637,1.926,3.035,3.035,0,0,1-1.534,2.783A7.1,7.1,0,0,1,5.869-12.266Zm0,0" transform="translate(-1.438 26.125)"/></g></g><g transform="translate(98.453 171.541)"><g transform="translate(0 0)"><path class="a" d="M9.481-14.313a4.348,4.348,0,0,0,.547.628,1.263,1.263,0,0,0,.441.253,5.487,5.487,0,0,0,.726.147v.433H7.188v-.433a2.036,2.036,0,0,0,.522-.131.241.241,0,0,0,.163-.212,1.057,1.057,0,0,0-.253-.531L5.066-17.716a.223.223,0,0,0-.212-.106.562.562,0,0,0-.343.171,4.163,4.163,0,0,0-.588.62,1.124,1.124,0,0,0-.2.686v1.91a.974.974,0,0,0,.3.816,2.422,2.422,0,0,0,1.094.335v.433H.634v-.433A2.335,2.335,0,0,0,1.7-13.619a.98.98,0,0,0,.3-.816V-24.743a1.7,1.7,0,0,0-.2-.963.985.985,0,0,0-.824-.277,3.277,3.277,0,0,0-.367.016v-.4l2.359-.514a.809.809,0,0,1,.212-.024c.359,0,.539.208.539.62v7.8a.54.54,0,0,0,.082.31.266.266,0,0,0,.22.114.459.459,0,0,0,.253-.106L7.62-21.209a.581.581,0,0,0,.212-.359c0-.131-.088-.241-.261-.335a1.929,1.929,0,0,0-.726-.18v-.433h3.428v.433a2.4,2.4,0,0,0-.865.212,2.468,2.468,0,0,0-.555.4,5.017,5.017,0,0,1-.416.351l-2.359,2.1Zm0,0" transform="translate(-0.609 26.906)"/></g></g><g transform="translate(109.251 175.932)"><path class="a" d="M2.74-4.592A1.973,1.973,0,0,1,1.484-4.96,1.136,1.136,0,0,1,1.027-5.9a1,1,0,0,1,.31-.767,1.124,1.124,0,0,1,.784-.286.673.673,0,0,1,.6.22,1.927,1.927,0,0,1,.245.677,1.871,1.871,0,0,0,.155.514.394.394,0,0,0,.375.171q.667,0,1.29-1.624a3.567,3.567,0,0,0,.253-1.241,2.547,2.547,0,0,0-.09-.7c-.055-.206-.139-.482-.253-.824L2.12-16.076a9.144,9.144,0,0,0-.5-1.086,1.75,1.75,0,0,0-.465-.539,2.7,2.7,0,0,0-.751-.367V-18.5H4.675v.433a2.7,2.7,0,0,0-.808.343.558.558,0,0,0-.22.465,3.947,3.947,0,0,0,.343,1.183L6.046-11.04c.069.127.149.188.237.188s.151-.061.212-.188l1.094-2.808A11.017,11.017,0,0,0,8.511-17a.819.819,0,0,0-.261-.694,2.557,2.557,0,0,0-.857-.375V-18.5h3.8v.433a3.174,3.174,0,0,0-1.314.62,4,4,0,0,0-.792,1.371l-3.6,8.888A10.357,10.357,0,0,1,4.8-5.751a2.468,2.468,0,0,1-.816.849A2.287,2.287,0,0,1,2.74-4.592Zm0,0" transform="translate(-0.406 18.5)"/></g><g transform="translate(120.888 175.736)"><g transform="translate(0 0)"><path class="a" d="M10.082-10.991A4.21,4.21,0,0,1,8.645-9.563a4.37,4.37,0,0,1-2.465.677A5.138,5.138,0,0,1,3.7-9.5a4.579,4.579,0,0,1-1.8-1.747,5.086,5.086,0,0,1-.661-2.612,5.026,5.026,0,0,1,.694-2.677,4.61,4.61,0,0,1,1.836-1.738,5.266,5.266,0,0,1,2.481-.6,4.415,4.415,0,0,1,1.975.424,3.33,3.33,0,0,1,1.339,1.134,2.8,2.8,0,0,1,.482,1.592,1.365,1.365,0,0,1-.4,1.045,2.424,2.424,0,0,1-1.232.539,15.222,15.222,0,0,1-2.269.2L3.634-13.9c-.316,0-.473.171-.473.514a1.39,1.39,0,0,0,.024.286A4.043,4.043,0,0,0,4.63-10.877a4,4,0,0,0,2.5.808,3.106,3.106,0,0,0,2.587-1.2ZM5.9-18.361a2.581,2.581,0,0,0-2.008.816,3.777,3.777,0,0,0-.865,2.253,1.164,1.164,0,0,0,.131.718.63.63,0,0,0,.514.18l1.885-.041a4.661,4.661,0,0,0,2.106-.375,1.2,1.2,0,0,0,.612-1.126,2.468,2.468,0,0,0-.62-1.755A2.282,2.282,0,0,0,5.9-18.361Zm0,0" transform="translate(-1.234 18.875)"/></g></g><g transform="translate(130.437 185.596)"><path class="a"/></g><g transform="translate(134.721 172.292)"><path class="a" d="M2.836-22.922a8.216,8.216,0,0,0-.563-1.216,1.723,1.723,0,0,0-.571-.6,2.339,2.339,0,0,0-.873-.277v-.449H5.537v.424a2.671,2.671,0,0,0-.906.269.5.5,0,0,0-.253.441,2.659,2.659,0,0,0,.2.751L7.9-14.973c.1.186.167.278.212.278.069,0,.141-.092.212-.278l2.106-5.444a3.09,3.09,0,0,0,.171-1.028,4.34,4.34,0,0,0-.3-1.477,9.742,9.742,0,0,0-.579-1.224,1.692,1.692,0,0,0-.563-.6,2.339,2.339,0,0,0-.873-.277v-.449h4.693v.424a2.671,2.671,0,0,0-.906.269.5.5,0,0,0-.253.441,2.112,2.112,0,0,0,.212.751l3.305,8.611c.1.186.167.278.212.278.069,0,.141-.092.212-.278l3.257-8.5a1.8,1.8,0,0,0,.106-.539q0-.832-1.453-1.028v-.424h4.048v.424a2.916,2.916,0,0,0-1.2.5,2.5,2.5,0,0,0-.71,1.069l-3.722,9.663a5.365,5.365,0,0,0-.408,1.649h-1.2l-3.24-8.358L8.647-13.814c-.159.431-.269.763-.335,1a2.45,2.45,0,0,0-.1.653H7.039Zm0,0" transform="translate(-0.828 25.469)"/></g><g transform="translate(156.673 175.736)"><g transform="translate(0 0)"><path class="a" d="M4.018-8.885a3.281,3.281,0,0,1-1.983-.588,2.063,2.063,0,0,1-.8-1.771,2.56,2.56,0,0,1,1.355-2.212,11.976,11.976,0,0,1,4.775-1.257.608.608,0,0,0,.359-.147.6.6,0,0,0,.131-.433v-.449a2.767,2.767,0,0,0-.6-1.877,2.275,2.275,0,0,0-1.82-.694q-1.689,0-1.689,1.583A1.222,1.222,0,0,1,3.5-15.9a.885.885,0,0,1-.7.277.8.8,0,0,1-.628-.253,1,1,0,0,1-.229-.686,1.567,1.567,0,0,1,.62-1.232,4.353,4.353,0,0,1,1.608-.8,7.324,7.324,0,0,1,2.04-.286,3.36,3.36,0,0,1,2.587.849,3.879,3.879,0,0,1,.775,2.669v4.8c0,.6.237.9.71.9a1.214,1.214,0,0,0,.359-.041v.408a2.349,2.349,0,0,1-1.33.384,1.425,1.425,0,0,1-1.045-.375,1.636,1.636,0,0,1-.408-1.167c0-.1-.037-.147-.106-.147s-.131.049-.212.147A3.978,3.978,0,0,1,6-9.3,4.913,4.913,0,0,1,4.018-8.885Zm1.069-.988a2.977,2.977,0,0,0,1.363-.318,2.871,2.871,0,0,0,1.012-.849,1.8,1.8,0,0,0,.392-1.1v-1.29a.98.98,0,0,0-.131-.563.593.593,0,0,0-.514-.188L7-14.158a6.658,6.658,0,0,0-3.044.89,1.837,1.837,0,0,0-.857,1.51,1.878,1.878,0,0,0,.514,1.339A1.926,1.926,0,0,0,5.087-9.873Zm0,0" transform="translate(-1.234 18.875)"/></g></g><g transform="translate(166.717 171.541)"><g transform="translate(0 0)"><path class="a" d="M3.3-12.746A1.563,1.563,0,0,1,2.177-13.1,1.726,1.726,0,0,1,1.8-14.37V-24.743a1.7,1.7,0,0,0-.2-.963.985.985,0,0,0-.824-.277,3.277,3.277,0,0,0-.367.016v-.4l2.359-.514a.809.809,0,0,1,.212-.024c.359,0,.539.208.539.62v11.867a1,1,0,0,0,.171.628.667.667,0,0,0,.555.212,2.135,2.135,0,0,0,.669-.106v.449A2.974,2.974,0,0,1,3.3-12.746Zm0,0" transform="translate(-0.406 26.906)"/></g></g><g transform="translate(171.751 171.541)"><g transform="translate(0 0)"><path class="a" d="M3.3-12.746A1.563,1.563,0,0,1,2.177-13.1,1.726,1.726,0,0,1,1.8-14.37V-24.743a1.7,1.7,0,0,0-.2-.963.985.985,0,0,0-.824-.277,3.277,3.277,0,0,0-.367.016v-.4l2.359-.514a.809.809,0,0,1,.212-.024c.359,0,.539.208.539.62v11.867a1,1,0,0,0,.171.628.667.667,0,0,0,.555.212,2.135,2.135,0,0,0,.669-.106v.449A2.974,2.974,0,0,1,3.3-12.746Zm0,0" transform="translate(-0.406 26.906)"/></g></g><g transform="translate(177.218 175.736)"><g transform="translate(0 0)"><path class="a" d="M10.082-10.991A4.21,4.21,0,0,1,8.645-9.563a4.37,4.37,0,0,1-2.465.677A5.138,5.138,0,0,1,3.7-9.5a4.579,4.579,0,0,1-1.8-1.747,5.086,5.086,0,0,1-.661-2.612,5.026,5.026,0,0,1,.694-2.677,4.61,4.61,0,0,1,1.836-1.738,5.266,5.266,0,0,1,2.481-.6,4.415,4.415,0,0,1,1.975.424,3.33,3.33,0,0,1,1.339,1.134,2.8,2.8,0,0,1,.482,1.592,1.365,1.365,0,0,1-.4,1.045,2.424,2.424,0,0,1-1.232.539,15.222,15.222,0,0,1-2.269.2L3.634-13.9c-.316,0-.473.171-.473.514a1.39,1.39,0,0,0,.024.286A4.043,4.043,0,0,0,4.63-10.877a4,4,0,0,0,2.5.808,3.106,3.106,0,0,0,2.587-1.2ZM5.9-18.361a2.581,2.581,0,0,0-2.008.816,3.777,3.777,0,0,0-.865,2.253,1.164,1.164,0,0,0,.131.718.63.63,0,0,0,.514.18l1.885-.041a4.661,4.661,0,0,0,2.106-.375,1.2,1.2,0,0,0,.612-1.126,2.468,2.468,0,0,0-.62-1.755A2.282,2.282,0,0,0,5.9-18.361Zm0,0" transform="translate(-1.234 18.875)"/></g></g><g transform="translate(187.089 173.704)"><g transform="translate(0 0)"><path class="a" d="M4.445-10.768q-2.467,0-2.465-2.873v-5.868a.45.45,0,0,0-.114-.351.534.534,0,0,0-.351-.1H.609v-.408A3.261,3.261,0,0,0,2.3-21.117a2.96,2.96,0,0,0,.824-1.649h.571v1.673a.683.683,0,0,0,.106.433.422.422,0,0,0,.326.122H6.053v.579H4.127c-.29,0-.433.151-.433.449v6.129q0,1.928,1.265,1.926a1.778,1.778,0,0,0,1.094-.318l.237.408A2.772,2.772,0,0,1,4.445-10.768Zm0,0" transform="translate(-0.609 22.766)"/></g></g></g></svg>